<svg width="141" height="18" viewBox="0 0 141 18" fill="none" xmlns="http://www.w3.org/2000/svg">
<path d="M140.584 12.1844C140.584 13.7533 140.061 15.0607 139.015 16.1066C137.969 17.1525 136.668 17.6755 135.112 17.6755H117.893V13.1219H135.074C135.724 13.1219 136.05 12.8094 136.05 12.1844C136.05 11.5594 135.724 11.2469 135.074 11.2469H122.179C120.635 11.2469 119.334 10.724 118.276 9.67805C117.217 8.63213 116.688 7.31198 116.688 5.71759C116.688 4.14871 117.217 2.84769 118.276 1.81453C119.334 0.76861 120.635 0.245651 122.179 0.245651H139.417V4.78009H122.217C121.566 4.78009 121.241 5.09259 121.241 5.71759C121.241 6.38086 121.566 6.71249 122.217 6.71249H135.112C136.668 6.71249 137.969 7.23545 139.015 8.28137C140.061 9.31453 140.584 10.6155 140.584 12.1844Z" fill="black"/>
<path d="M114.219 17.6755H109.685V13.4089H94.8763V17.6755H90.3228V7.87958C90.3228 5.34131 91.5664 3.37065 94.0536 1.96759C96.1072 0.819631 98.4924 0.245651 101.209 0.245651H103.371C106.139 0.245651 108.531 0.819631 110.546 1.96759C112.995 3.34514 114.219 5.3158 114.219 7.87958V17.6755ZM109.685 8.81708V7.87958C109.685 6.80815 108.862 5.98545 107.217 5.41147C106.005 4.99055 104.723 4.78009 103.371 4.78009H101.209C98.7092 4.78009 96.9235 5.26478 95.8521 6.23417C95.2526 6.75713 94.9273 7.31836 94.8763 7.91785C94.8763 7.91785 94.8763 8.21759 94.8763 8.81708H109.685Z" fill="black"/>
<path d="M88.8112 8.97014C88.8112 11.4829 87.9885 13.562 86.3431 15.2074C84.6977 16.8528 82.625 17.6755 80.125 17.6755H64.9146C64.9146 11.8719 64.9146 8.97014 64.9146 8.97014C64.9146 8.97014 64.9146 6.06198 64.9146 0.245651H80.125C82.625 0.245651 84.6977 1.06836 86.3431 2.71376C87.9885 4.35917 88.8112 6.44463 88.8112 8.97014ZM84.2768 8.97014C84.2768 7.69463 83.8941 6.68698 83.1288 5.94718C82.3763 5.19463 81.3623 4.8056 80.0867 4.78009H69.4681V13.1219H80.0867C81.3623 13.0964 82.3763 12.7201 83.1288 11.9931C83.8941 11.2661 84.2768 10.2584 84.2768 8.97014Z" fill="black"/>
<path d="M61.7575 17.7903H58.6198L42.4144 6.71249V17.7138H37.8608V0.28392H41.0369L57.2231 11.0939V0.28392H61.7575V17.7903Z" fill="black"/>
<path d="M34.723 17.7138H30.1694V0.245651H34.723V17.7138Z" fill="black"/>
<path d="M27.9884 0.245651L15.6861 17.7138H13.1797L0.877441 0.245651H6.48331L14.4425 11.4383L22.3825 0.245651H27.9884Z" fill="black"/>
</svg>
